<svg width="362" height="362" viewBox="0 0 362 362" fill="none" xmlns="http://www.w3.org/2000/svg">
<path fill-rule="evenodd" clip-rule="evenodd" d="M337 181C337 267.156 267.156 337 181 337C94.8436 337 25 267.156 25 181C25 94.8436 94.8436 25 181 25C267.156 25 337 94.8436 337 181ZM362 181C362 280.964 280.964 362 181 362C81.0365 362 0 280.964 0 181C0 81.0365 81.0365 0 181 0C280.964 0 362 81.0365 362 181ZM261 93.5C261 104.822 251.822 114 240.5 114C239.829 114 239.166 113.968 238.512 113.905L172.526 170.765L233.367 248.275C235.588 247.451 237.991 247 240.5 247C251.822 247 261 256.178 261 267.5C261 278.822 251.822 288 240.5 288C229.178 288 220 278.822 220 267.5C220 265.422 220.309 263.416 220.884 261.525L158.875 182.528L158.75 182.636L147 169L222.736 103.738C220.996 100.726 220 97.2291 220 93.5C220 82.1782 229.178 73 240.5 73C251.822 73 261 82.1782 261 93.5ZM181 310C253.349 310 312 251.349 312 179C312 106.651 253.349 48 181 48C108.651 48 50 106.651 50 179C50 251.349 108.651 310 181 310ZM181 327C262.738 327 329 260.738 329 179C329 97.2619 262.738 31 181 31C99.2619 31 33 97.2619 33 179C33 260.738 99.2619 327 181 327ZM139 93.5C139 100.137 135.846 106.037 130.955 109.784L130.141 250.624C135.493 254.323 139 260.502 139 267.5C139 278.822 129.822 288 118.5 288C107.178 288 98 278.822 98 267.5C98 261.285 100.766 255.716 105.133 251.957L105.955 109.715C101.116 105.965 98 100.096 98 93.5C98 82.1782 107.178 73 118.5 73C129.822 73 139 82.1782 139 93.5Z" fill="black"/>
</svg>
