<svg width="334" height="334" viewBox="0 0 334 334" fill="none" xmlns="http://www.w3.org/2000/svg">
<path fill-rule="evenodd" clip-rule="evenodd" d="M167 324C253.709 324 324 253.709 324 167C324 80.2913 253.709 10 167 10C80.2913 10 10 80.2913 10 167C10 253.709 80.2913 324 167 324ZM167 334C259.232 334 334 259.232 334 167C334 74.7684 259.232 0 167 0C74.7684 0 0 74.7684 0 167C0 259.232 74.7684 334 167 334ZM167 300C241.558 300 302 239.558 302 165C302 90.4416 241.558 30 167 30C92.4416 30 32 90.4416 32 165C32 239.558 92.4416 300 167 300ZM167 310C247.081 310 312 245.081 312 165C312 84.9187 247.081 20 167 20C86.9187 20 22 84.9187 22 165C22 245.081 86.9187 310 167 310ZM125.627 102.592C133.909 99.6325 139.836 91.7174 139.836 82.4179C139.836 70.5891 130.247 61 118.418 61C106.589 61 97 70.5891 97 82.4179C97 91.873 103.127 99.8972 111.627 102.737V230.308C103.127 233.148 97 241.172 97 250.627C97 262.456 106.589 272.045 118.418 272.045C130.247 272.045 139.836 262.456 139.836 250.627C139.836 241.327 133.909 233.412 125.627 230.452V175.64L145.754 158.297L197.564 235.226C193.535 239.12 191.03 244.581 191.03 250.627C191.03 262.456 200.619 272.045 212.448 272.045C224.277 272.045 233.866 262.456 233.866 250.627C233.866 238.798 224.277 229.209 212.448 229.209C211.775 229.209 211.109 229.24 210.452 229.301L156.435 149.093L209.854 103.061C211.677 103.566 213.598 103.836 215.582 103.836C227.411 103.836 237 94.2467 237 82.4179C237 70.5891 227.411 61 215.582 61C203.753 61 194.164 70.5891 194.164 82.4179C194.164 87.0056 195.607 91.2563 198.063 94.7414L125.627 157.159V102.592Z" fill="black"/>
</svg>
