<svg width="350" height="350" viewBox="0 0 350 350" fill="none" xmlns="http://www.w3.org/2000/svg">
<path fill-rule="evenodd" clip-rule="evenodd" d="M330 175C330 260.604 260.604 330 175 330C89.3959 330 20 260.604 20 175C20 89.3959 89.3959 20 175 20C260.604 20 330 89.3959 330 175ZM350 175C350 271.65 271.65 350 175 350C78.3502 350 0 271.65 0 175C0 78.3502 78.3502 0 175 0C271.65 0 350 78.3502 350 175ZM254 89.5C254 100.822 244.822 110 233.5 110C232.829 110 232.166 109.968 231.512 109.905L165.526 166.765L226.367 244.275C228.588 243.451 230.991 243 233.5 243C244.822 243 254 252.178 254 263.5C254 274.822 244.822 284 233.5 284C222.178 284 213 274.822 213 263.5C213 261.422 213.309 259.416 213.884 257.525L151.875 178.528L151.75 178.636L140 165L215.736 99.7383C213.996 96.7257 213 93.2291 213 89.5C213 78.1782 222.178 69 233.5 69C244.822 69 254 78.1782 254 89.5ZM174 313C250.215 313 312 251.215 312 175C312 98.7847 250.215 37 174 37C97.7847 37 36 98.7847 36 175C36 251.215 97.7847 313 174 313ZM174 323C255.738 323 322 256.738 322 175C322 93.2619 255.738 27 174 27C92.2619 27 26 93.2619 26 175C26 256.738 92.2619 323 174 323ZM132 89.5C132 96.1368 128.846 102.037 123.955 105.784L123.141 246.624C128.493 250.323 132 256.502 132 263.5C132 274.822 122.822 284 111.5 284C100.178 284 91 274.822 91 263.5C91 257.285 93.7656 251.716 98.1332 247.957L98.9554 105.715C94.1155 101.965 91 96.0964 91 89.5C91 78.1782 100.178 69 111.5 69C122.822 69 132 78.1782 132 89.5Z" fill="black"/>
</svg>
